<?xml version="1.0" encoding="UTF-8"?>
<svg id="Layer_1" data-name="Layer 1" xmlns="http://www.w3.org/2000/svg" viewBox="0 0 256 256">
  <defs>
    <style>
      .cls-1 {
        fill: #ff7318;
      }

      .cls-2 {
        fill: #18315d;
      }
    </style>
  </defs>
  <rect class="cls-2" width="256" height="256" rx="25.37" ry="25.37"/>
  <path class="cls-1" d="M127.7,99.85l27.96-69.71c.84-.54,4.54,2.81,5.29,3.54,8.2,7.96,11.28,18.31,8.91,29.16l-28.07,72.59,10.9,27.83c2.29-.84,4.36-2.25,6.67-3.06,34.09-11.86,59.16,29.34,32.51,50.31-17.85,14.04-39.21,6.66-50.54-10.08-6.09-9-8.76-20.67-13.21-30.47l-9.53,23.62c-8.07,15.29-18.66,25.83-38.5,23.98-11.75-1.09-23.72-11.44-26.25-22.07-6.49-27.28,24.41-46.87,49.29-31.84,3.1-9.42,7.23-18.58,10.91-27.83l-28.07-73.39c-2.89-13.04,2.46-24.37,13.56-32.29l.59.63,27.59,69.07ZM83.12,172.04c-21.22,2.38-18.76,33.39,3.69,32.18,22.91-1.24,20.71-34.91-3.69-32.18ZM166.57,172.03c-18.14,2.28-18.05,29.37.42,31.7,26.76,3.37,27.66-35.23-.42-31.7Z"/>
</svg>